<svg width="24" height="25" viewBox="0 0 24 25" fill="none" xmlns="http://www.w3.org/2000/svg">
<path fill-rule="evenodd" clip-rule="evenodd" d="M17.7102 5.54972C17.4004 2.58407 14.8807 0.271781 11.8183 0.271781C10.2465 0.265199 8.73333 0.883283 7.61697 1.98939C6.64792 2.94955 6.04718 4.20878 5.90551 5.54972H5.90454C3.75888 5.54972 1.95617 7.11694 1.44972 9.83815L0.533249 16.9085C-0.24686 22.0856 2.18777 24.3614 6.95256 24.3614H16.7056C21.1119 24.3614 23.7456 21.7962 23.2048 17.1926L22.2587 9.88555C21.6521 7.13048 19.8958 5.54972 17.7964 5.54972H17.7102ZM15.944 5.54972C15.6447 3.54975 13.9112 2.01554 11.8146 2.01554C10.7052 2.0109 9.63965 2.44614 8.85355 3.22502C8.21529 3.85742 7.80394 4.67407 7.67178 5.54972H15.944ZM5.90436 7.29352H17.7962C19.0274 7.29352 20.1091 8.26707 20.5337 10.1846L21.4294 17.1313C21.9624 20.8272 20.1882 22.6176 16.7054 22.6176H6.95238C3.18115 22.6176 1.65921 21.195 2.26871 17.1491L3.18021 10.1083C3.52851 8.24411 4.62192 7.29352 5.90436 7.29352ZM15.2832 10.5297C15.7672 10.5297 16.1595 10.92 16.1595 11.4016C16.1595 11.843 15.8298 12.2077 15.4021 12.2655L15.2832 12.2734H15.2298C14.7458 12.2734 14.3535 11.8831 14.3535 11.4016C14.3535 10.9602 14.6832 10.5954 15.1109 10.5376L15.2298 10.5297H15.2832ZM9.34752 11.4016C9.34752 10.92 8.95521 10.5297 8.47127 10.5297H8.4178L8.2989 10.5376C7.8712 10.5954 7.54155 10.9602 7.54155 11.4016C7.54155 11.8831 7.93386 12.2734 8.4178 12.2734H8.47127L8.59017 12.2655C9.01787 12.2077 9.34752 11.843 9.34752 11.4016Z" fill="#0C1A30"/>
</svg>
