<svg width="25" height="25" viewBox="0 0 25 25" fill="none" xmlns="http://www.w3.org/2000/svg">
<path d="M13.1673 24.3525C12.6967 24.3525 12.2267 24.3525 11.7562 24.3525C11.4387 24.3148 11.1201 24.2824 10.8032 24.2376C8.42904 23.9025 6.32934 22.9542 4.53238 21.3676C2.4162 19.4987 1.09219 17.1735 0.605104 14.3847C0.526181 13.9323 0.48083 13.4741 0.420166 13.0183C0.420166 12.5477 0.420166 12.0777 0.420166 11.6071C0.434301 11.5317 0.456093 11.4575 0.461394 11.3815C0.533838 10.2966 0.761182 9.24293 1.13106 8.22283C3.23664 2.4232 9.35314 -0.845018 15.3513 0.62035C21.539 2.13225 25.5052 8.32178 24.2919 14.5708C23.8266 16.9673 22.7405 19.0399 21.0243 20.7721C19.2249 22.5885 17.0628 23.7317 14.5373 24.1669C14.0832 24.2453 13.6238 24.2918 13.1673 24.3525ZM20.4918 19.2302C23.8395 15.5226 24.3196 8.89426 19.6926 4.52878C15.2853 0.371214 8.13102 0.834737 4.2697 5.55006C0.38895 10.2889 1.67763 16.3036 4.43697 19.2125C5.21677 16.4596 6.95071 14.5643 9.60345 13.4883C6.81407 11.484 6.87827 7.89359 8.68936 5.91346C10.5682 3.85971 13.7345 3.64944 15.7747 5.46466C16.8796 6.44766 17.4904 7.67744 17.5193 9.15518C17.5546 10.9651 16.7825 12.3969 15.32 13.483C17.9863 14.5637 19.6996 16.4696 20.4918 19.2302ZM12.6555 22.9425C12.9094 22.9213 13.3641 22.8995 13.814 22.8435C15.6234 22.6191 17.2625 21.9583 18.7296 20.8793C19.3239 20.4423 19.3156 20.4311 19.1384 19.6955C18.2838 16.1445 14.8995 13.9041 11.3021 14.5078C8.3831 14.9978 6.06254 17.3949 5.67441 20.3304C5.66498 20.401 5.71622 20.5088 5.77453 20.5554C7.72462 22.1244 9.95566 22.9095 12.6555 22.9425ZM12.46 12.9446C14.4672 12.947 16.1051 11.3191 16.121 9.30536C16.1369 7.30285 14.4766 5.63723 12.4635 5.63605C10.451 5.63488 8.79067 7.29755 8.80245 9.30242C8.81423 11.3132 10.4504 12.9423 12.46 12.9446Z" fill="black"/>
</svg>
