<svg width="26" height="27" viewBox="0 0 26 27" fill="none" xmlns="http://www.w3.org/2000/svg">
<path d="M9.77753 23.8815V20.1877C9.77751 19.2482 10.5435 18.4848 11.4925 18.4785H14.9687C15.9222 18.4785 16.6952 19.2437 16.6952 20.1877V20.1877V23.893C16.695 24.6907 17.3381 25.3427 18.1436 25.3614H20.4611C22.7714 25.3614 24.6442 23.5073 24.6442 21.2202V21.2202V10.7123C24.6318 9.8125 24.2051 8.96758 23.4854 8.41796L15.5596 2.09716C14.1711 0.996584 12.1973 0.996584 10.8088 2.09716L2.91778 8.42943C2.19537 8.97683 1.76793 9.82315 1.75903 10.7237V21.2202C1.75903 23.5073 3.63185 25.3614 5.94209 25.3614H8.25958C9.08512 25.3614 9.75435 24.6988 9.75435 23.8815V23.8815" stroke="black" stroke-width="2.40896" stroke-linecap="round" stroke-linejoin="round"/>
</svg>
