<svg width="30" height="30" viewBox="0 0 30 30" fill="none" xmlns="http://www.w3.org/2000/svg">
<path fill-rule="evenodd" clip-rule="evenodd" d="M8.18961 4.25366C3.76725 5.67746 1.79473 10.5054 3.27739 15.1111C4.02977 17.2799 5.25338 19.2292 6.86099 20.8285C9.06637 22.9704 11.4892 24.8553 14.0937 26.4568L14.3895 26.6339C14.6727 26.8035 15.0271 26.8005 15.3075 26.6262L15.5836 26.4546C18.1845 24.8553 20.6073 22.9704 22.8052 20.8359C24.4203 19.2292 25.6439 17.2799 26.39 15.13C27.8781 10.5082 25.8974 5.67797 21.4737 4.25373L21.1537 4.15844C19.1254 3.60059 16.9701 3.87547 15.1532 4.90415L14.8303 5.0956L14.513 4.90522C12.5966 3.81782 10.3062 3.57282 8.18961 4.25366ZM14.0815 6.70964L14.3184 6.8796C14.6308 7.10332 15.0523 7.09887 15.3599 6.86861C16.9618 5.66932 19.035 5.32033 20.9343 5.92964C24.3618 7.03313 25.9216 10.837 24.7192 14.5722C24.067 16.4509 22.9874 18.1707 21.5697 19.581L20.9338 20.1852C19.2202 21.7776 17.3672 23.2191 15.3998 24.4894L14.8362 24.8438L15.0082 24.9522C12.5227 23.4237 10.202 21.6182 8.09662 19.5736C6.68645 18.1707 5.60689 16.4509 4.94841 14.5533C3.75116 10.8335 5.3042 7.03226 8.72983 5.92936C10.5387 5.34751 12.5107 5.63599 14.0815 6.70964ZM19.4964 8.67225C19.0329 8.52432 18.5372 8.7798 18.3892 9.24287C18.2411 9.70594 18.4968 10.2012 18.9603 10.3492C19.8712 10.6399 20.5206 11.4598 20.6019 12.4269C20.6427 12.9113 21.0687 13.271 21.5535 13.2302C22.0384 13.1895 22.3983 12.7638 22.3576 12.2794C22.2167 10.6053 21.088 9.18026 19.4964 8.67225Z" fill="#0C1A30"/>
</svg>
